<svg width="634" height="346" viewBox="0 0 634 346" fill="none" xmlns="http://www.w3.org/2000/svg">
<rect width="634" height="346" rx="30" fill="black"/>
<path d="M74.9812 65V192.363C74.9812 206.578 94.5283 210.48 99.9853 197.353L118.298 153.303C122.432 143.357 136.175 142.465 141.56 151.793L182.383 222.5" stroke="white" stroke-width="17" stroke-linecap="round"/>
<path d="M287.185 144.5L239.843 226.5M239.843 226.5L221.253 258.699C218.931 262.721 214.639 265.199 209.994 265.199H71M239.843 226.5L192.5 144.5" stroke="white" stroke-width="17" stroke-linecap="round"/>
<path d="M379.5 67.5V145M379.5 145V210.5C379.5 217.68 373.68 223.5 366.5 223.5H316.435C306.336 223.5 300.094 212.487 305.282 203.822L336.715 151.322C339.063 147.4 343.298 145 347.869 145H379.5Z" stroke="white" stroke-width="17" stroke-linecap="round"/>
<path d="M428.5 67.5V223.5" stroke="white" stroke-width="17" stroke-linecap="round"/>
<path d="M477.5 182H544.5C551.68 182 557.5 176.18 557.5 169V155C557.5 147.82 551.68 142 544.5 142H490.5C483.32 142 477.5 147.82 477.5 155V182ZM477.5 182V210C477.5 217.18 483.32 223 490.5 223H557.5" stroke="white" stroke-width="17" stroke-linecap="round"/>
<path d="M546.451 280.772V255.104H549.781V256.634C550.333 256.094 550.975 255.632 551.707 255.248C552.451 254.864 553.417 254.672 554.605 254.672C556.261 254.672 557.689 255.062 558.889 255.842C560.089 256.61 561.013 257.714 561.661 259.154C562.309 260.594 562.633 262.31 562.633 264.302C562.633 266.33 562.291 268.064 561.607 269.504C560.923 270.932 559.981 272.03 558.781 272.798C557.593 273.554 556.231 273.932 554.695 273.932C553.435 273.932 552.427 273.728 551.671 273.32C550.915 272.9 550.285 272.402 549.781 271.826V279.188L546.451 280.772ZM554.245 270.818C555.841 270.818 557.071 270.254 557.935 269.126C558.799 267.998 559.231 266.39 559.231 264.302C559.231 262.322 558.793 260.738 557.917 259.55C557.041 258.362 555.787 257.768 554.155 257.768C553.183 257.768 552.325 257.978 551.581 258.398C550.837 258.806 550.237 259.376 549.781 260.108V268.478C550.273 269.114 550.879 269.666 551.599 270.134C552.331 270.59 553.213 270.818 554.245 270.818Z" fill="white"/>
<path d="M531.089 273.932C529.649 273.932 528.413 273.662 527.381 273.122C526.349 272.57 525.557 271.694 525.005 270.494C524.453 269.282 524.177 267.68 524.177 265.688V255.104H527.543V265.742C527.543 267.59 527.933 268.892 528.713 269.648C529.505 270.404 530.477 270.782 531.629 270.782C532.433 270.782 533.165 270.632 533.825 270.332C534.497 270.032 535.031 269.522 535.427 268.802C535.823 268.07 536.021 267.074 536.021 265.814V255.104H539.387V273.5H536.021V271.7C535.445 272.444 534.743 273.002 533.915 273.374C533.087 273.746 532.145 273.932 531.089 273.932Z" fill="white"/>
<path d="M509.607 273.932C507.855 273.932 506.331 273.548 505.035 272.78C503.739 272.012 502.731 270.914 502.011 269.486C501.303 268.046 500.949 266.324 500.949 264.32C500.949 262.328 501.303 260.612 502.011 259.172C502.731 257.732 503.739 256.622 505.035 255.842C506.331 255.062 507.855 254.672 509.607 254.672C511.371 254.672 512.901 255.056 514.197 255.824C515.493 256.592 516.495 257.696 517.203 259.136C517.911 260.576 518.265 262.298 518.265 264.302C518.265 266.294 517.911 268.01 517.203 269.45C516.495 270.89 515.493 272 514.197 272.78C512.901 273.548 511.371 273.932 509.607 273.932ZM509.607 270.818C511.299 270.818 512.595 270.236 513.495 269.072C514.407 267.896 514.863 266.306 514.863 264.302C514.863 262.298 514.419 260.708 513.531 259.532C512.655 258.356 511.347 257.768 509.607 257.768C507.903 257.768 506.601 258.344 505.701 259.496C504.801 260.648 504.351 262.256 504.351 264.32C504.351 266.312 504.801 267.896 505.701 269.072C506.601 270.236 507.903 270.818 509.607 270.818Z" fill="white"/>
<path d="M478.172 273.5V270.548H482.024V258.056H478.172V255.104H485.192V259.208L484.976 258.686C485.312 257.882 485.84 257.18 486.56 256.58C487.292 255.968 488.138 255.5 489.098 255.176C490.058 254.84 491.048 254.672 492.068 254.672C493.004 254.672 493.808 254.762 494.48 254.942C495.164 255.11 495.71 255.32 496.118 255.572V262.052H492.824V256.562L494.012 258.092C493.688 258.008 493.364 257.954 493.04 257.93C492.716 257.894 492.392 257.876 492.068 257.876C490.76 257.876 489.602 258.086 488.594 258.506C487.598 258.914 486.818 259.514 486.254 260.306C485.69 261.098 485.408 262.058 485.408 263.186V270.548H490.736V273.5H478.172Z" fill="white"/>
<path d="M463.962 280.988L462.27 278.306C464.142 278.186 465.582 277.928 466.59 277.532C467.61 277.148 468.312 276.638 468.696 276.002C469.092 275.366 469.29 274.622 469.29 273.77V271.826C468.762 272.51 468.114 273.032 467.346 273.392C466.59 273.752 465.642 273.932 464.502 273.932C463.098 273.932 461.814 273.572 460.65 272.852C459.486 272.132 458.55 271.058 457.842 269.63C457.146 268.202 456.798 266.42 456.798 264.284C456.798 262.28 457.128 260.564 457.788 259.136C458.46 257.696 459.384 256.592 460.56 255.824C461.736 255.056 463.086 254.672 464.61 254.672C465.45 254.672 466.176 254.774 466.788 254.978C467.4 255.17 467.91 255.416 468.318 255.716C468.726 256.004 469.05 256.28 469.29 256.544V255.104H472.62V272.384C472.62 273.92 472.422 275.216 472.026 276.272C471.642 277.34 471.072 278.204 470.316 278.864C469.572 279.536 468.666 280.034 467.598 280.358C466.53 280.694 465.318 280.904 463.962 280.988ZM465.15 270.818C465.99 270.818 466.776 270.602 467.508 270.17C468.252 269.738 468.846 269.132 469.29 268.352V260.09C468.87 259.382 468.282 258.818 467.526 258.398C466.77 257.978 465.978 257.768 465.15 257.768C463.518 257.768 462.282 258.332 461.442 259.46C460.602 260.576 460.182 262.184 460.182 264.284C460.182 266.324 460.638 267.926 461.55 269.09C462.462 270.242 463.662 270.818 465.15 270.818Z" fill="white"/>
<path d="M413.277 273.5V249.056L416.607 247.508V257.03C417.771 255.458 419.469 254.672 421.701 254.672C423.093 254.672 424.299 254.942 425.319 255.482C426.339 256.01 427.125 256.874 427.677 258.074C428.229 259.262 428.505 260.834 428.505 262.79V273.5H425.175V262.7C425.175 260.876 424.767 259.598 423.951 258.866C423.147 258.134 422.169 257.768 421.017 257.768C420.201 257.768 419.457 257.918 418.785 258.218C418.125 258.506 417.597 259.004 417.201 259.712C416.805 260.42 416.607 261.392 416.607 262.628V273.5H413.277Z" fill="white"/>
<path d="M399.085 273.932C396.649 273.932 394.711 273.092 393.271 271.412C391.843 269.72 391.129 267.356 391.129 264.32C391.129 262.304 391.459 260.576 392.119 259.136C392.779 257.696 393.715 256.592 394.927 255.824C396.151 255.056 397.597 254.672 399.265 254.672C400.933 254.672 402.355 255.038 403.531 255.77C404.707 256.502 405.565 257.612 406.105 259.1L402.991 260.216C402.715 259.508 402.271 258.926 401.659 258.47C401.059 258.002 400.249 257.768 399.229 257.768C397.633 257.768 396.451 258.362 395.683 259.55C394.927 260.726 394.549 262.316 394.549 264.32C394.549 266.348 394.933 267.938 395.701 269.09C396.481 270.242 397.633 270.818 399.157 270.818C400.177 270.818 401.029 270.578 401.713 270.098C402.397 269.606 402.889 268.928 403.189 268.064L406.285 269.108C405.793 270.644 404.929 271.832 403.693 272.672C402.457 273.512 400.921 273.932 399.085 273.932Z" fill="white"/>
<path d="M367.254 273.5V270.548H371.106V258.056H367.254V255.104H374.274V259.208L374.058 258.686C374.394 257.882 374.922 257.18 375.642 256.58C376.374 255.968 377.22 255.5 378.18 255.176C379.14 254.84 380.13 254.672 381.15 254.672C382.086 254.672 382.89 254.762 383.562 254.942C384.246 255.11 384.792 255.32 385.2 255.572V262.052H381.906V256.562L383.094 258.092C382.77 258.008 382.446 257.954 382.122 257.93C381.798 257.894 381.474 257.876 381.15 257.876C379.842 257.876 378.684 258.086 377.676 258.506C376.68 258.914 375.9 259.514 375.336 260.306C374.772 261.098 374.49 262.058 374.49 263.186V270.548H379.818V273.5H367.254Z" fill="white"/>
<path d="M353.044 273.932C351.76 273.932 350.62 273.704 349.624 273.248C348.628 272.78 347.842 272.09 347.266 271.178C346.69 270.266 346.402 269.126 346.402 267.758C346.402 266.342 346.744 265.19 347.428 264.302C348.124 263.402 349.012 262.742 350.092 262.322C351.184 261.89 352.33 261.674 353.53 261.674C354.442 261.674 355.288 261.764 356.068 261.944C356.86 262.112 357.64 262.4 358.408 262.808V261.494C358.408 260.462 358.24 259.664 357.904 259.1C357.568 258.536 357.106 258.146 356.518 257.93C355.942 257.702 355.294 257.588 354.574 257.588C353.578 257.588 352.558 257.78 351.514 258.164C350.47 258.536 349.546 258.986 348.742 259.514L347.752 256.742C348.592 256.226 349.636 255.752 350.884 255.32C352.144 254.888 353.476 254.672 354.88 254.672C355.624 254.672 356.386 254.756 357.166 254.924C357.946 255.092 358.672 255.41 359.344 255.878C360.016 256.346 360.556 257.018 360.964 257.894C361.384 258.77 361.594 259.91 361.594 261.314V273.5H358.408V271.88C357.796 272.444 357.046 272.93 356.158 273.338C355.27 273.734 354.232 273.932 353.044 273.932ZM353.548 271.016C354.664 271.016 355.624 270.77 356.428 270.278C357.244 269.786 357.904 269.252 358.408 268.676V265.706C357.868 265.382 357.202 265.106 356.41 264.878C355.618 264.65 354.808 264.536 353.98 264.536C352.804 264.536 351.772 264.794 350.884 265.31C350.008 265.826 349.57 266.642 349.57 267.758C349.57 268.718 349.918 269.504 350.614 270.116C351.31 270.716 352.288 271.016 353.548 271.016Z" fill="white"/>
<path d="M332.517 273.932C330.741 273.932 329.217 273.512 327.945 272.672C326.673 271.82 325.695 270.668 325.011 269.216C324.339 267.764 324.003 266.12 324.003 264.284C324.003 262.268 324.351 260.546 325.047 259.118C325.755 257.678 326.745 256.58 328.017 255.824C329.301 255.056 330.801 254.672 332.517 254.672C333.933 254.672 335.229 254.984 336.405 255.608C337.581 256.232 338.517 257.192 339.213 258.488C339.921 259.784 340.275 261.446 340.275 263.474C340.275 263.726 340.269 264.038 340.257 264.41C340.257 264.782 340.227 265.184 340.167 265.616H326.595V262.718H336.963C336.927 261.422 336.675 260.402 336.207 259.658C335.751 258.914 335.187 258.392 334.515 258.092C333.843 257.78 333.177 257.624 332.517 257.624C330.717 257.624 329.397 258.194 328.557 259.334C327.717 260.474 327.297 262.01 327.297 263.942C327.297 266.078 327.765 267.776 328.701 269.036C329.637 270.296 330.933 270.926 332.589 270.926C333.357 270.926 334.089 270.8 334.785 270.548C335.493 270.284 336.171 269.87 336.819 269.306L338.745 271.466C337.989 272.174 337.077 272.762 336.009 273.23C334.953 273.698 333.789 273.932 332.517 273.932Z" fill="white"/>
<path d="M309.919 273.932C308.491 273.932 307.159 273.626 305.923 273.014C304.699 272.402 303.691 271.628 302.899 270.692L305.149 268.676C305.689 269.252 306.385 269.786 307.237 270.278C308.101 270.77 309.067 271.016 310.135 271.016C311.083 271.016 311.875 270.836 312.511 270.476C313.159 270.104 313.483 269.54 313.483 268.784C313.483 268.208 313.279 267.722 312.871 267.326C312.475 266.93 311.929 266.576 311.233 266.264C310.549 265.952 309.775 265.634 308.911 265.31C307.831 264.89 306.853 264.44 305.977 263.96C305.101 263.48 304.405 262.886 303.889 262.178C303.373 261.47 303.115 260.588 303.115 259.532C303.115 258.524 303.403 257.66 303.979 256.94C304.567 256.208 305.359 255.65 306.355 255.266C307.363 254.87 308.491 254.672 309.739 254.672C311.179 254.672 312.445 254.936 313.537 255.464C314.629 255.992 315.541 256.682 316.273 257.534L314.041 259.388C313.573 258.944 312.967 258.536 312.223 258.164C311.491 257.78 310.597 257.588 309.541 257.588C308.581 257.588 307.801 257.756 307.201 258.092C306.613 258.428 306.319 258.914 306.319 259.55C306.319 260.042 306.511 260.462 306.895 260.81C307.291 261.158 307.807 261.476 308.443 261.764C309.079 262.04 309.769 262.316 310.513 262.592C311.521 262.964 312.493 263.384 313.429 263.852C314.377 264.32 315.157 264.938 315.769 265.706C316.381 266.462 316.687 267.458 316.687 268.694C316.687 270.314 316.075 271.592 314.851 272.528C313.627 273.464 311.983 273.932 309.919 273.932Z" fill="white"/>
<path d="M288.149 273.932C286.373 273.932 284.849 273.512 283.577 272.672C282.305 271.82 281.327 270.668 280.643 269.216C279.971 267.764 279.635 266.12 279.635 264.284C279.635 262.268 279.983 260.546 280.679 259.118C281.387 257.678 282.377 256.58 283.649 255.824C284.933 255.056 286.433 254.672 288.149 254.672C289.565 254.672 290.861 254.984 292.037 255.608C293.213 256.232 294.15 257.192 294.846 258.488C295.554 259.784 295.908 261.446 295.908 263.474C295.908 263.726 295.902 264.038 295.889 264.41C295.889 264.782 295.859 265.184 295.799 265.616H282.227V262.718H292.596C292.56 261.422 292.307 260.402 291.84 259.658C291.384 258.914 290.819 258.392 290.147 258.092C289.475 257.78 288.809 257.624 288.149 257.624C286.349 257.624 285.029 258.194 284.189 259.334C283.349 260.474 282.929 262.01 282.929 263.942C282.929 266.078 283.397 267.776 284.333 269.036C285.269 270.296 286.566 270.926 288.222 270.926C288.99 270.926 289.722 270.8 290.417 270.548C291.125 270.284 291.803 269.87 292.451 269.306L294.377 271.466C293.621 272.174 292.709 272.762 291.641 273.23C290.585 273.698 289.421 273.932 288.149 273.932Z" fill="white"/>
<path d="M256.336 273.5V270.548H260.188V258.056H256.336V255.104H263.356V259.208L263.14 258.686C263.476 257.882 264.004 257.18 264.724 256.58C265.456 255.968 266.302 255.5 267.262 255.176C268.222 254.84 269.212 254.672 270.232 254.672C271.168 254.672 271.972 254.762 272.644 254.942C273.328 255.11 273.874 255.32 274.282 255.572V262.052H270.988V256.562L272.176 258.092C271.852 258.008 271.528 257.954 271.204 257.93C270.88 257.894 270.556 257.876 270.232 257.876C268.924 257.876 267.766 258.086 266.758 258.506C265.762 258.914 264.982 259.514 264.418 260.306C263.854 261.098 263.572 262.058 263.572 263.186V270.548H268.9V273.5H256.336Z" fill="white"/>
</svg>
